<?xml version="1.0" encoding="UTF-8" standalone="no"?>
<svg width="42px" height="42px" viewBox="0 0 42 42" version="1.1" xmlns="http://www.w3.org/2000/svg" xmlns:xlink="http://www.w3.org/1999/xlink">
    <!-- Generator: Sketch 39.1 (31720) - http://www.bohemiancoding.com/sketch -->
    <title>Icone</title>
    <desc>Created with Sketch.</desc>
    <defs></defs>
    <g id="Machine's-page" stroke="none" stroke-width="1" fill="none" fill-rule="evenodd">
        <g id="FABLAB-BERLIN" transform="translate(-584.000000, -1157.000000)">
            <g id="3D-PRINTERS" transform="translate(40.000000, 604.000000)">
                <g id="Mia" transform="translate(455.000000, 351.000000)">
                    <g id="Icone" transform="translate(90.000000, 203.000000)">
                        <path d="M28.7221905,11.2629351 L28.7221905,11.2629351 C27.9741429,10.5161576 27.9741429,9.29775348 28.7221905,8.55097589 L30.4544762,6.82163124 C30.6513333,6.62510832 30.5332381,6.31069066 30.257619,6.23206248 C28.5647143,5.76043599 26.6355714,6.19279593 25.2969524,7.52909474 C23.8402857,8.98333582 23.4859524,11.0664122 24.1158571,12.835071 C24.1552381,12.9529657 24.1552381,13.1102221 24.0370952,13.2281168 L13.2102857,24.0365922 C13.0921429,24.1544869 12.9740476,24.1544869 12.8165714,24.1151728 C11.0055238,23.4470234 8.91890476,23.8400693 7.50157143,25.2943104 C6.12361905,26.6699233 5.72990476,28.5564767 6.20233333,30.2858214 C6.28109524,30.5609725 6.63542857,30.6396007 6.83228571,30.4430778 L8.56457143,28.7136856 C9.31261905,27.9669555 10.5330952,27.9669555 11.2810952,28.7136856 C12.0291429,29.4604632 12.0291429,30.6788672 11.2810952,31.4256448 L9.54880952,33.1549895 C9.35195238,33.3515124 9.43071429,33.7052441 9.70628571,33.7838723 C11.3992381,34.2554988 13.328381,33.862453 14.6669524,32.4868401 C16.1236667,31.032599 16.478,28.9495226 15.8480952,27.1808638 C15.8087143,27.0629691 15.8087143,26.9057603 15.9268095,26.787818 L26.7930476,15.9400761 C26.9111429,15.8221338 27.0292857,15.8221338 27.1867619,15.8614479 C28.9977619,16.5295973 31.0844286,16.1365514 32.5017619,14.6823579 C33.8403333,13.3460115 34.2734286,11.420144 33.8009524,9.73011341 C33.7222381,9.45496231 33.3679048,9.37638166 33.1710476,9.57290458 L31.399381,11.2629351 C30.6513333,12.0490268 29.4702381,12.0490268 28.7221905,11.2629351" id="Fill-1" fill="#ADADAD"></path>
                        <path d="M15.8480762,19.2022472 L19.1945524,15.8614526 C19.3914095,15.6649297 19.3914095,15.311198 19.1945524,15.114675 L11.0055048,6.93953073 C9.94250476,5.87833548 8.05274286,5.76044075 6.91098095,6.82163599 C5.72988571,7.92214533 5.69050476,9.80869881 6.83226667,10.9485222 L15.1000286,19.2022472 C15.2968857,19.3987701 15.651219,19.3987701 15.8480762,19.2022472" id="Fill-4" fill="#ADADAD"></path>
                        <path d="M32.541119,30.1679314 C32.4623571,30.0893032 32.3836429,30.0107226 32.304881,29.9714085 L30.8482143,29.2246309 C30.8088333,29.1853643 30.7300714,29.1460503 30.6906905,29.1067362 L23.6040238,22.0321012 C23.4072143,21.8355783 23.0528333,21.8355783 22.8560238,22.0321012 L21.9898333,22.8967735 C21.7930238,23.0932964 21.7930238,23.4470282 21.9898333,23.6435511 L29.0765,30.7181861 C29.115881,30.7575002 29.1552619,30.8360808 29.1946429,30.8753949 L29.9426905,32.329636 C29.9820238,32.4082166 30.0607857,32.4868448 30.1395476,32.5654255 L32.0686905,33.8624577 C32.304881,34.0196666 32.6592143,33.9803525 32.8560714,33.7838771 L33.7222143,32.9192048 C33.9190714,32.7226818 33.9584524,32.3689501 33.8009762,32.1331131 L32.541119,30.1679314 Z" id="Fill-7" fill="#ADADAD"></path>
                        <circle id="Contour" stroke="#ADADAD" cx="20" cy="20" r="20"></circle>
                    </g>
                </g>
            </g>
        </g>
    </g>
</svg>