<?xml version="1.0" encoding="UTF-8"?>
<svg width="40px" height="41px" viewBox="0 0 40 41" version="1.1" xmlns="http://www.w3.org/2000/svg" xmlns:xlink="http://www.w3.org/1999/xlink">
    <!-- Generator: Sketch 42 (36781) - http://www.bohemiancoding.com/sketch -->
    <title>materials</title>
    <desc>Created with Sketch.</desc>
    <defs></defs>
    <g id="IMP---Infos" stroke="none" stroke-width="1" fill="none" fill-rule="evenodd">
        <g id="Individual-machine's-page---Start-Copy-2" transform="translate(-761.000000, -312.000000)" fill="#000000">
            <g id="materials" transform="translate(761.000000, 312.000000)">
                <g id="Ebene_1">
                    <path d="M37.0666667,8.15494505 L36.1777778,8.15494505 L36.1777778,7.25384615 C36.1777778,5.58681319 34.8444444,4.28021978 33.2444444,4.28021978 L32.3555556,4.28021978 L32.3555556,3.37912088 C32.3555556,1.71208791 31.0222222,0.405494505 29.4222222,0.405494505 L2.97777778,0.405494505 C1.33333333,0.405494505 0.0444444444,1.75714286 0.0444444444,3.37912088 L0.0444444444,30.1868132 C0.0444444444,31.8538462 1.37777778,33.1604396 2.97777778,33.1604396 L3.86666667,33.1604396 L3.86666667,34.0615385 C3.86666667,35.7285714 5.2,37.0351648 6.8,37.0351648 L7.68888889,37.0351648 L7.68888889,37.9362637 C7.68888889,39.6032967 9.02222222,40.9098901 10.6222222,40.9098901 L37.0666667,40.9098901 C38.7111111,40.9098901 40,39.5582418 40,37.9362637 L40,11.1285714 C40,9.50659341 38.6666667,8.15494505 37.0666667,8.15494505 L37.0666667,8.15494505 L37.0666667,8.15494505 L37.0666667,8.15494505 Z M2.93333333,31.7637363 C2.08888889,31.7637363 1.37777778,31.0428571 1.37777778,30.1868132 L1.37777778,3.37912088 C1.37777778,2.52307692 2.08888889,1.8021978 2.93333333,1.8021978 L29.3777778,1.8021978 C30.2222222,1.8021978 30.9333333,2.52307692 30.9333333,3.37912088 L30.9333333,30.1868132 C30.9333333,31.0428571 30.2222222,31.7637363 29.3777778,31.7637363 L2.93333333,31.7637363 L2.93333333,31.7637363 L2.93333333,31.7637363 Z M6.75555556,35.6384615 C5.91111111,35.6384615 5.2,34.9175824 5.2,34.0615385 L5.2,33.1604396 L29.3777778,33.1604396 C31.0222222,33.1604396 32.3111111,31.8087912 32.3111111,30.1868132 L32.3111111,5.67692308 L33.2,5.67692308 C34.0444444,5.67692308 34.7555556,6.3978022 34.7555556,7.25384615 L34.7555556,34.0615385 C34.7555556,34.9175824 34.0444444,35.6384615 33.2,35.6384615 L6.75555556,35.6384615 L6.75555556,35.6384615 L6.75555556,35.6384615 Z M38.6222222,37.9813187 C38.6222222,38.8373626 37.9111111,39.5582418 37.0666667,39.5582418 L10.6222222,39.5582418 C9.77777778,39.5582418 9.06666667,38.8373626 9.06666667,37.9813187 L9.06666667,37.0802198 L33.2444444,37.0802198 C34.8888889,37.0802198 36.1777778,35.7285714 36.1777778,34.1065934 L36.1777778,9.5967033 L37.0666667,9.5967033 C37.9111111,9.5967033 38.6222222,10.3175824 38.6222222,11.1736264 L38.6222222,37.9813187 L38.6222222,37.9813187 L38.6222222,37.9813187 Z M4.31111111,12.2098901 C4.4,12.2098901 4.53333333,12.1648352 4.62222222,12.1197802 C5.82222222,11.489011 6.57777778,10.2274725 6.57777778,8.83076923 C6.57777778,7.56923077 7.6,6.53296703 8.84444444,6.53296703 C10.0888889,6.53296703 11.2888889,5.9021978 11.9555556,4.82087912 C12.1777778,4.50549451 12.0444444,4.05494505 11.7333333,3.82967033 C11.4222222,3.6043956 10.9777778,3.73956044 10.7555556,4.05494505 C10.3555556,4.73076923 9.6,5.13626374 8.84444444,5.13626374 C6.84444444,5.13626374 5.2,6.8032967 5.2,8.83076923 C5.2,9.68681319 4.75555556,10.4527473 4,10.8582418 C3.64444444,11.0384615 3.55555556,11.443956 3.73333333,11.8043956 C3.82222222,12.0747253 4.04444444,12.2098901 4.31111111,12.2098901 L4.31111111,12.2098901 L4.31111111,12.2098901 Z M4.08888889,21.2208791 C4.35555556,21.2208791 4.62222222,21.0406593 4.71111111,20.7703297 C4.88888889,20.3197802 4.97777778,19.8241758 4.97777778,19.3285714 C4.97777778,18.067033 6,17.0307692 7.24444444,17.0307692 C9.24444444,17.0307692 10.8888889,15.3637363 10.8888889,13.3362637 C10.8888889,12.0747253 11.9111111,11.0384615 13.1555556,11.0384615 C15.1555556,11.0384615 16.8,9.37142857 16.8,7.34395604 C16.8,6.35274725 17.4222222,5.4967033 18.3111111,5.18131868 C18.6666667,5.04615385 18.8444444,4.64065934 18.7555556,4.28021978 C18.6222222,3.91978022 18.2222222,3.73956044 17.8666667,3.82967033 C16.4,4.37032967 15.4222222,5.76703297 15.4222222,7.34395604 C15.4222222,8.60549451 14.4,9.64175824 13.1555556,9.64175824 C11.1555556,9.64175824 9.51111111,11.3087912 9.51111111,13.3362637 C9.51111111,14.5978022 8.48888889,15.6340659 7.24444444,15.6340659 C5.24444444,15.6340659 3.6,17.3010989 3.6,19.3285714 C3.6,19.643956 3.55555556,19.9593407 3.42222222,20.2296703 C3.28888889,20.5901099 3.42222222,20.9956044 3.77777778,21.1307692 C3.91111111,21.1758242 4,21.2208791 4.08888889,21.2208791 L4.08888889,21.2208791 L4.08888889,21.2208791 Z M15.3333333,17.7516484 C15.3333333,16.4901099 16.3555556,15.4538462 17.6,15.4538462 C19.6,15.4538462 21.2444444,13.7868132 21.2444444,11.7593407 C21.2444444,10.4978022 22.2666667,9.46153846 23.5111111,9.46153846 C25.5111111,9.46153846 27.1555556,7.79450549 27.1555556,5.76703297 C27.1555556,5.40659341 27.2444444,5.09120879 27.3777778,4.77582418 C27.5555556,4.41538462 27.3777778,4.00989011 27.0222222,3.82967033 C26.6666667,3.64945055 26.2666667,3.82967033 26.0888889,4.19010989 C25.8666667,4.68571429 25.7333333,5.22637363 25.7333333,5.76703297 C25.7333333,7.02857143 24.7111111,8.06483516 23.4666667,8.06483516 C21.4666667,8.06483516 19.8222222,9.73186813 19.8222222,11.7593407 C19.8222222,13.0208791 18.8,14.0571429 17.5555556,14.0571429 C15.5555556,14.0571429 13.9111111,15.7241758 13.9111111,17.7516484 C13.9111111,19.0131868 12.8888889,20.0494505 11.6444444,20.0494505 C9.64444444,20.0494505 8,21.7164835 8,23.743956 C8,25.0054945 6.97777778,26.0417582 5.73333333,26.0417582 C5.11111111,26.0417582 4.48888889,26.221978 3.95555556,26.4923077 C3.6,26.6725275 3.51111111,27.1230769 3.68888889,27.4384615 C3.82222222,27.6637363 4.04444444,27.7989011 4.31111111,27.7989011 C4.44444444,27.7989011 4.53333333,27.7538462 4.66666667,27.7087912 C5.02222222,27.5285714 5.37777778,27.4384615 5.77777778,27.4384615 C7.77777778,27.4384615 9.42222222,25.7714286 9.42222222,23.743956 C9.42222222,22.4824176 10.4444444,21.4461538 11.6888889,21.4461538 C13.6888889,21.4912088 15.3333333,19.8241758 15.3333333,17.7516484 L15.3333333,17.7516484 L15.3333333,17.7516484 Z M25.6888889,16.1747253 C25.6888889,14.9131868 26.7111111,13.8769231 27.9555556,13.8769231 C28.3555556,13.8769231 28.6666667,13.5615385 28.6666667,13.156044 C28.6666667,12.7505495 28.3555556,12.4351648 27.9555556,12.4351648 C25.9555556,12.4351648 24.3111111,14.1021978 24.3111111,16.1296703 C24.3111111,17.3912088 23.2888889,18.4274725 22.0444444,18.4274725 C20.0444444,18.4274725 18.4,20.0945055 18.4,22.121978 C18.4,23.3835165 17.3777778,24.4197802 16.1333333,24.4197802 C14.1333333,24.4197802 12.4888889,26.0868132 12.4888889,28.1142857 C12.4888889,28.2494505 12.4888889,28.4296703 12.4444444,28.5648352 C12.3555556,28.9252747 12.6222222,29.3307692 12.9777778,29.3758242 L13.1111111,29.3758242 C13.4222222,29.3758242 13.7333333,29.1505495 13.7777778,28.8351648 C13.8222222,28.6098901 13.8666667,28.3395604 13.8666667,28.0692308 C13.8666667,26.8076923 14.8888889,25.7714286 16.1333333,25.7714286 C18.1333333,25.7714286 19.7777778,24.1043956 19.7777778,22.0769231 C19.7777778,20.8153846 20.8,19.7791209 22.0444444,19.7791209 C24.0444444,19.9142857 25.6888889,18.2472527 25.6888889,16.1747253 L25.6888889,16.1747253 L25.6888889,16.1747253 Z M28.0444444,22.2571429 C27.6,22.7076923 27.0222222,22.932967 26.4444444,22.932967 C24.4444444,22.932967 22.8,24.6 22.8,26.6274725 C22.8,27.2582418 22.5777778,27.843956 22.1333333,28.2494505 C21.8666667,28.5197802 21.8666667,28.9703297 22.1333333,29.2406593 C22.2666667,29.3758242 22.4444444,29.4659341 22.6222222,29.4659341 C22.8,29.4659341 22.9777778,29.3758242 23.1111111,29.2406593 C23.8222222,28.5197802 24.1777778,27.6186813 24.1777778,26.6274725 C24.1777778,25.3659341 25.2,24.3296703 26.4444444,24.3296703 C27.4222222,24.3296703 28.3555556,23.9241758 29.0222222,23.2483516 C29.2888889,22.978022 29.2888889,22.5274725 29.0222222,22.2571429 C28.7111111,21.9868132 28.3111111,21.9868132 28.0444444,22.2571429 L28.0444444,22.2571429 L28.0444444,22.2571429 Z" id="Shape"></path>
                </g>
            </g>
        </g>
    </g>
</svg>