<?xml version="1.0" encoding="UTF-8"?>
<svg width="30px" height="38px" viewBox="0 0 30 38" version="1.1" xmlns="http://www.w3.org/2000/svg" xmlns:xlink="http://www.w3.org/1999/xlink">
    <!-- Generator: Sketch 42 (36781) - http://www.bohemiancoding.com/sketch -->
    <title>resources</title>
    <desc>Created with Sketch.</desc>
    <defs></defs>
    <g id="IMP---Infos" stroke="none" stroke-width="1" fill="none" fill-rule="evenodd">
        <g id="Individual-machine's-page---Start-Copy-2" transform="translate(-130.000000, -840.000000)" fill="#000000">
            <g id="resources" transform="translate(130.000000, 840.000000)">
                <g id="Ebene_1">
                    <g id="Group">
                        <rect id="Rectangle-path" x="5.71875" y="12.3851852" width="17.953125" height="1.78271605"></rect>
                        <rect id="Rectangle-path" x="5.71875" y="19.562963" width="17.953125" height="1.78271605"></rect>
                        <rect id="Rectangle-path" x="5.71875" y="26.7407407" width="17.953125" height="1.78271605"></rect>
                        <rect id="Rectangle-path" x="5.71875" y="15.9975309" width="17.953125" height="1.78271605"></rect>
                        <rect id="Rectangle-path" x="5.71875" y="23.1753086" width="17.953125" height="1.78271605"></rect>
                        <rect id="Rectangle-path" x="5.71875" y="30.3530864" width="17.953125" height="1.78271605"></rect>
                        <path d="M21.890625,3.5654321 L18.28125,3.5654321 L18.28125,2.11111111 C18.28125,1.12592593 17.484375,0.328395062 16.5,0.328395062 L12.890625,0.328395062 C11.90625,0.328395062 11.109375,1.12592593 11.109375,2.11111111 L11.109375,3.5654321 L7.5,3.5654321 C6.515625,3.5654321 5.71875,4.36296296 5.71875,5.34814815 L5.71875,8.44444444 L23.671875,8.44444444 L23.671875,5.34814815 C23.671875,4.40987654 22.875,3.5654321 21.890625,3.5654321 L21.890625,3.5654321 Z" id="Shape"></path>
                        <polygon id="Shape" points="24.5625 5.62962963 24.5625 7.41234568 27.28125 7.41234568 27.28125 36.1703704 2.15625 36.1703704 2.15625 7.41234568 4.828125 7.41234568 4.828125 5.62962963 0.328125 5.62962963 0.328125 37.9530864 29.0625 37.9530864 29.0625 5.62962963"></polygon>
                    </g>
                </g>
            </g>
        </g>
    </g>
</svg>