<?xml version="1.0" encoding="UTF-8"?>
<svg width="44px" height="43px" viewBox="0 0 44 43" version="1.1" xmlns="http://www.w3.org/2000/svg" xmlns:xlink="http://www.w3.org/1999/xlink">
    <!-- Generator: Sketch 42 (36781) - http://www.bohemiancoding.com/sketch -->
    <title>Ebene_1</title>
    <desc>Created with Sketch.</desc>
    <defs></defs>
    <g id="IMP---Infos" stroke="none" stroke-width="1" fill="none" fill-rule="evenodd">
        <g id="Individual-machine's-page---Start-Copy-2" transform="translate(-764.000000, -564.000000)">
            <g id="safety" transform="translate(765.000000, 565.000000)">
                <g id="Ebene_1">
                    <g id="Group" transform="translate(2.773585, 2.365385)" fill="#FF0000">
                        <g transform="translate(2.377358, 2.365385)" id="Shape">
                            <path d="M7.05283019,31.2230769 L13.9075472,24.4028846 C10.5792453,23.6538462 7.9245283,21.0519231 7.17169811,17.7403846 L0.316981132,24.5605769 C1.90188679,27.3201923 4.23962264,29.6461538 7.05283019,31.2230769 L7.05283019,31.2230769 Z"></path>
                            <path d="M31.3811321,24.5605769 L24.5264151,17.7403846 C23.7735849,21.0519231 21.1188679,23.6538462 17.790566,24.4028846 L24.645283,31.2230769 C27.4584906,29.6461538 29.7962264,27.3201923 31.3811321,24.5605769 L31.3811321,24.5605769 Z"></path>
                            <path d="M24.7245283,0.275961538 L17.8698113,7.09615385 C21.1981132,7.84519231 23.8132075,10.4865385 24.5660377,13.7980769 L31.4207547,6.97788462 C29.8358491,4.17884615 27.4981132,1.85288462 24.7245283,0.275961538 L24.7245283,0.275961538 Z"></path>
                            <path d="M0.277358491,6.97788462 L7.13207547,13.7980769 C7.88490566,10.4865385 10.5,7.84519231 13.8283019,7.09615385 L6.97358491,0.275961538 C4.2,1.85288462 1.86226415,4.17884615 0.277358491,6.97788462 L0.277358491,6.97788462 Z"></path>
                        </g>
                        <path d="M18.2264151,1.85288462 C27.2207547,1.85288462 34.5509434,9.14615385 34.5509434,18.0951923 C34.5509434,27.0442308 27.2207547,34.3375 18.2264151,34.3375 C9.23207547,34.3375 1.90188679,27.0442308 1.90188679,18.0951923 C1.90188679,9.14615385 9.23207547,1.85288462 18.2264151,1.85288462 L18.2264151,1.85288462 Z M18.2264151,28.5423077 C24.0113208,28.5423077 28.7264151,23.8509615 28.7264151,18.0951923 C28.7264151,12.3394231 24.0113208,7.64807692 18.2264151,7.64807692 C12.4415094,7.64807692 7.72641509,12.3394231 7.72641509,18.0951923 C7.72641509,23.8509615 12.4415094,28.5423077 18.2264151,28.5423077 L18.2264151,28.5423077 Z M18.2264151,0.275961538 C8.36037736,0.275961538 0.316981132,8.23942308 0.316981132,18.0951923 C0.316981132,27.9115385 8.32075472,35.9144231 18.2264151,35.9144231 C28.1320755,35.9144231 36.1358491,27.9509615 36.1358491,18.0951923 C36.1358491,8.23942308 28.0924528,0.275961538 18.2264151,0.275961538 L18.2264151,0.275961538 L18.2264151,0.275961538 Z M18.2264151,26.9653846 C13.3132075,26.9653846 9.31132075,22.9836538 9.31132075,18.0951923 C9.31132075,13.2067308 13.3132075,9.225 18.2264151,9.225 C23.1396226,9.225 27.1415094,13.2067308 27.1415094,18.0951923 C27.1415094,22.9836538 23.1396226,26.9653846 18.2264151,26.9653846 L18.2264151,26.9653846 L18.2264151,26.9653846 Z" id="Shape"></path>
                    </g>
                    <path d="M15.9283019,0.749038462 C23.5358491,-0.394230769 23.1792453,1.18269231 25.3981132,2.24711538 C27.6169811,3.31153846 29.4792453,1.18269231 30.9849057,1.85288462 C32.5301887,2.52307692 32.4113208,6.42596154 33.8773585,8.12115385 C35.3433962,9.81634615 41.9603774,11.6692308 41.9603774,19.6721154 C41.9603774,27.675 35.8981132,30.0798077 33.9962264,32.6423077 C32.0943396,35.2048077 30.945283,39.8567308 26.9037736,40.8423077 C24.209434,41.5125 16.6018868,40.0144231 8.79622642,33.4701923 C2.65471698,28.3057692 -4.00188679,13.9951923 3.09056604,11.7480769 C5.1509434,11.0778846 6.14150943,10.2894231 7.09245283,9.18557692 C9.15283019,6.93846154 8.32075472,1.89230769 15.9283019,0.749038462 L15.9283019,0.749038462 Z" id="Shape" stroke="#FF0000"></path>
                </g>
            </g>
        </g>
    </g>
</svg>