<?xml version="1.0" encoding="UTF-8" standalone="no"?>
<svg width="38px" height="41px" viewBox="0 0 38 41" version="1.1" xmlns="http://www.w3.org/2000/svg" xmlns:xlink="http://www.w3.org/1999/xlink">
    <!-- Generator: Sketch 40.1 (33804) - http://www.bohemiancoding.com/sketch -->
    <title>Ebene_1</title>
    <desc>Created with Sketch.</desc>
    <defs></defs>
    <g id="IMP---Infos" stroke="none" stroke-width="1" fill="none" fill-rule="evenodd">
        <g id="Individual-machine's-page---Start-Copy-2" transform="translate(-133.000000, -312.000000)" fill="#000000">
            <g id="Ebene_1" transform="translate(133.000000, 312.000000)">
                <g id="Group">
                    <polygon id="Shape" points="3.84318182 31.4914894 3.02272727 30.6191489 12.3931818 21.4159574 12.3931818 19.6712766 16.1931818 15.8329787 16.1931818 10.4680851 17.7045455 8.2 17.7045455 0.0436170213 18.8272727 0.0436170213 18.8272727 8.54893617 17.3590909 10.8170213 17.3590909 16.312766 13.5159091 20.1946809 13.5159091 21.8957447"></polygon>
                    <polygon id="Shape" points="15.5454545 30.0521277 14.3795455 30.0521277 14.3795455 20.3691489 17.3590909 16.7925532 20.2954545 16.7925532 25.0886364 11.2095745 29.5795455 11.2095745 29.5795455 12.387234 25.6068182 12.387234 20.8568182 17.9702128 17.8772727 17.9702128 15.5454545 20.8053191"></polygon>
                    <polygon id="Shape" points="22.4977273 37.9031915 19.9931818 35.5914894 19.9931818 29.8340426 16.4954545 26.8244681 16.4954545 20.412766 18.2227273 18.7989362 22.6704545 18.7989362 23.9659091 17.4904255 24.7863636 18.3191489 23.1454545 19.9765957 18.6977273 19.9765957 17.6613636 20.9361702 17.6613636 26.3010638 21.1590909 29.2670213 21.1590909 35.0680851 23.275 37.0308511"></polygon>
                    <polygon id="Shape" points="9.06818182 21.1106383 8.29090909 20.2382979 14.7681818 14.1319149 14.7681818 2.05 15.9340909 2.05 15.9340909 14.6117021"></polygon>
                    <path d="M14.9840909,30.0521277 C13.9477273,30.0521277 13.1272727,30.8808511 13.1272727,31.9276596 C13.1272727,32.9744681 13.9477273,33.8031915 14.9840909,33.8031915 C16.0204545,33.8031915 16.8409091,32.9744681 16.8409091,31.9276596 C16.7977273,30.9244681 15.9772727,30.0521277 14.9840909,30.0521277 L14.9840909,30.0521277 Z" id="Shape"></path>
                    <path d="M9.5,31.5787234 C8.46363636,31.5787234 7.64318182,32.4074468 7.64318182,33.4542553 C7.64318182,34.5010638 8.46363636,35.3297872 9.5,35.3297872 C10.5363636,35.3297872 11.3568182,34.5010638 11.3568182,33.4542553 C11.3568182,32.4510638 10.5363636,31.5787234 9.5,31.5787234 L9.5,31.5787234 Z" id="Shape"></path>
                    <ellipse id="Oval" cx="9.5" cy="33.4542553" rx="0.906818182" ry="0.915957447"></ellipse>
                    <path d="M14.9840909,37.1180851 C13.9477273,37.1180851 13.1272727,37.9468085 13.1272727,38.993617 C13.1272727,40.0404255 13.9477273,40.8691489 14.9840909,40.8691489 C16.0204545,40.8691489 16.8409091,40.0404255 16.8409091,38.993617 C16.7977273,37.9468085 15.9772727,37.1180851 14.9840909,37.1180851 L14.9840909,37.1180851 Z" id="Shape"></path>
                    <path d="M14.9840909,38.0776596 C14.4659091,38.0776596 14.0772727,38.5138298 14.0772727,38.993617 C14.0772727,39.5170213 14.5090909,39.9095745 14.9840909,39.9095745 C15.5022727,39.9095745 15.8909091,39.4734043 15.8909091,38.993617 C15.8909091,38.4702128 15.4590909,38.0776596 14.9840909,38.0776596 L14.9840909,38.0776596 Z" id="Shape"></path>
                    <path d="M2.07272727,30.662766 C1.03636364,30.662766 0.215909091,31.4914894 0.215909091,32.5382979 C0.215909091,33.5851064 1.03636364,34.4138298 2.07272727,34.4138298 C3.10909091,34.4138298 3.92954545,33.5851064 3.92954545,32.5382979 C3.88636364,31.4914894 3.06590909,30.662766 2.07272727,30.662766 L2.07272727,30.662766 Z" id="Shape"></path>
                    <path d="M2.07272727,31.5787234 C1.55454545,31.5787234 1.16590909,32.0148936 1.16590909,32.4946809 C1.16590909,33.0180851 1.59772727,33.4106383 2.07272727,33.4106383 C2.59090909,33.4106383 2.97954545,32.9744681 2.97954545,32.4946809 C2.97954545,32.0148936 2.54772727,31.5787234 2.07272727,31.5787234 L2.07272727,31.5787234 Z" id="Shape"></path>
                    <path d="M25.7795455,15.3531915 C24.7431818,15.3531915 23.9227273,16.1819149 23.9227273,17.2287234 C23.9227273,18.2755319 24.7431818,19.1042553 25.7795455,19.1042553 C26.8159091,19.1042553 27.6363636,18.2755319 27.6363636,17.2287234 C27.6363636,16.1819149 26.8159091,15.3531915 25.7795455,15.3531915 L25.7795455,15.3531915 Z" id="Shape"></path>
                    <path d="M25.7795455,16.2691489 C25.2613636,16.2691489 24.8727273,16.7053191 24.8727273,17.1851064 C24.8727273,17.7085106 25.3045455,18.1010638 25.7795455,18.1010638 C26.2977273,18.1010638 26.6863636,17.6648936 26.6863636,17.1851064 C26.7295455,16.7053191 26.2977273,16.2691489 25.7795455,16.2691489 L25.7795455,16.2691489 Z" id="Shape"></path>
                    <path d="M31.0477273,9.94468085 C30.0113636,9.94468085 29.1909091,10.7734043 29.1909091,11.8202128 C29.1909091,12.8670213 30.0113636,13.6957447 31.0477273,13.6957447 C32.0840909,13.6957447 32.9045455,12.8670213 32.9045455,11.8202128 C32.8613636,10.7734043 32.0409091,9.94468085 31.0477273,9.94468085 L31.0477273,9.94468085 Z" id="Shape"></path>
                    <path d="M31.0477273,10.8606383 C30.5295455,10.8606383 30.1409091,11.2968085 30.1409091,11.7765957 C30.1409091,12.3 30.5727273,12.6925532 31.0477273,12.6925532 C31.5659091,12.6925532 31.9545455,12.256383 31.9545455,11.7765957 C31.9545455,11.2968085 31.5227273,10.8606383 31.0477273,10.8606383 L31.0477273,10.8606383 Z" id="Shape"></path>
                    <path d="M20.2522727,20.9361702 C19.2159091,20.9361702 18.3954545,21.7648936 18.3954545,22.8117021 C18.3954545,23.8585106 19.2159091,24.687234 20.2522727,24.687234 C21.2886364,24.687234 22.1090909,23.8585106 22.1090909,22.8117021 C22.1090909,21.7648936 21.2886364,20.9361702 20.2522727,20.9361702 L20.2522727,20.9361702 Z" id="Shape"></path>
                    <path d="M20.2522727,21.8521277 C19.7340909,21.8521277 19.3454545,22.2882979 19.3454545,22.7680851 C19.3454545,23.2914894 19.7772727,23.6840426 20.2522727,23.6840426 C20.7704545,23.6840426 21.1590909,23.2478723 21.1590909,22.7680851 C21.1590909,22.2882979 20.7704545,21.8521277 20.2522727,21.8521277 L20.2522727,21.8521277 Z" id="Shape"></path>
                    <polygon id="Shape" points="25.3045455 23.3787234 22.1090909 23.3787234 22.1090909 22.2010638 24.8295455 22.2010638 36.9636364 9.11595745 37.7840909 9.94468085"></polygon>
                    <path d="M7.77272727,19.9329787 C6.73636364,19.9329787 5.91590909,20.7617021 5.91590909,21.8085106 C5.91590909,22.8553191 6.73636364,23.6840426 7.77272727,23.6840426 C8.80909091,23.6840426 9.62954545,22.8553191 9.62954545,21.8085106 C9.58636364,20.7617021 8.76590909,19.9329787 7.77272727,19.9329787 L7.77272727,19.9329787 Z" id="Shape"></path>
                    <path d="M23.7931818,36.6382979 C22.7568182,36.6382979 21.9363636,37.4670213 21.9363636,38.5138298 C21.9363636,39.5606383 22.7568182,40.3893617 23.7931818,40.3893617 C24.8295455,40.3893617 25.65,39.5606383 25.65,38.5138298 C25.65,37.4670213 24.8295455,36.6382979 23.7931818,36.6382979 L23.7931818,36.6382979 Z" id="Shape"></path>
                </g>
            </g>
        </g>
    </g>
</svg>