<?xml version="1.0" encoding="utf-8"?>
<!-- Generator: Adobe Illustrator 19.1.0, SVG Export Plug-In . SVG Version: 6.00 Build 0)  -->
<svg version="1.1" id="Layer_1" xmlns="http://www.w3.org/2000/svg" xmlns:xlink="http://www.w3.org/1999/xlink" x="0px" y="0px"
	 viewBox="0 0 252.887 208.234" enable-background="new 0 0 252.887 208.234" xml:space="preserve">
<g>
	<path d="M252.887,102.804c-15.222,0.031-30.444,0.07-45.666,0.089c-10.204,0.013-20.408-0.002-30.612-0.005
		c-0.811,0-1.621,0-2.635,0c-0.388-10.293-4.243-18.806-12.293-25.137c-6.338-4.984-13.607-7.008-21.676-6.595
		c-11.856,0.607-28.422,10.132-29.521,31.588c-36.719,0-73.446,0-110.484,0C0.628,63.725,14.505,30.443,41.611,2.339
		c9.353,9.406,18.54,18.646,27.603,27.76c33.278-29.565,70.495-38.238,112.06-22.053c34.125,13.288,54.786,43.691,60.695,71.082
		c-6.829,0-13.604,0-20.531,0c0,2.7,0,5.129,0,7.875c10.467,0,20.957,0,31.448,0C252.887,92.27,252.887,97.537,252.887,102.804z
		 M48.034,31.231c-12.415,16.505-20.185,34.986-23.03,55.716c5.356,0,10.417,0,15.634,0c2.716-16.446,8.995-31.347,18.532-44.4
		C55.358,38.674,51.748,35.005,48.034,31.231z"/>
	<path d="M140.837,208.234v-29.222l-52.588,14.069l14.578-25.273l-52.448-14.087l25.27-14.636l-22.41-22.117l4.495-0.258
		c0.517-0.029,0.945-0.059,1.318-0.084c0.732-0.051,1.268-0.085,1.803-0.086l14.166-0.003c12.423-0.001,25.269-0.001,37.9-0.049
		c0.011,0,0.022,0,0.033,0c2.19,0,3.682,0.809,4.981,2.698c5.692,8.279,14.555,13.025,24.318,13.025c0.017,0,0.031,0,0.049,0
		c9.775-0.016,18.633-4.786,24.301-13.088c1.254-1.836,2.761-2.621,5.032-2.621c0.011,0,0.021,0,0.031,0
		c17.854,0.058,32.749,0.054,46.874-0.01c0.014,0,0.027,0,0.041,0c2.607,0,4.064,1.13,4.721,3.66
		c1.783,6.878,3.668,13.856,5.491,20.605c0.778,2.884,1.558,5.768,2.331,8.653c0.157,0.583,0.275,1.178,0.418,1.904
		c0.07,0.354,0.146,0.74,0.237,1.177l0.918,4.373l-24.8-14.27l-1.501,5.621c-1.516,5.683-3.008,11.275-4.509,16.866
		c-1.499,5.585-3.006,11.168-4.565,16.948l-3.507,13l-14.641-25.223l-4.154,4.153c-4.14,4.139-8.226,8.223-12.306,12.312
		c-4.38,4.387-8.754,8.779-13.291,13.336L140.837,208.234z M144.837,173.802v24.748l1.754-1.761
		c4.538-4.558,8.913-8.951,13.294-13.34c4.081-4.09,8.168-8.175,12.309-12.313l7.831-7.831l12.431,21.415l1.006-3.729
		c1.56-5.778,3.066-11.359,4.564-16.943c1.5-5.589,2.992-11.18,4.508-16.86l2.845-10.655l21.463,12.35
		c-0.635-2.36-1.271-4.72-1.909-7.079c-1.825-6.758-3.712-13.747-5.5-20.644c-0.107-0.413-0.196-0.583-0.229-0.638
		c-0.023,0.015-0.199-0.027-0.614-0.027c-0.01,0-0.019,0-0.029,0c-14.137,0.062-29.04,0.067-46.904,0.01c-0.01,0-0.02,0-0.03,0
		c-0.939,0-1.217,0.145-1.718,0.877c-6.423,9.408-16.481,14.813-27.598,14.832c-0.019,0-0.037,0-0.056,0
		c-11.102,0-21.163-5.377-27.613-14.759c-0.58-0.844-0.867-0.965-1.673-0.965c-0.01,0-0.021,0-0.031,0
		c-12.64,0.048-25.488,0.048-37.915,0.049l-12.469,0.003l19.636,19.379l-21.471,12.437l48.177,12.94l-12.359,21.428L144.837,173.802
		z"/>
	<path d="M142.188,86.875c8.797-0.029,15.857,6.969,15.885,15.744c0.027,8.567-7.034,15.725-15.627,15.843
		c-8.68,0.119-15.93-7.012-15.971-15.709C126.433,93.912,133.368,86.905,142.188,86.875z"/>
	<path fill="#FFFFFF" d="M48.034,31.231c3.714,3.774,7.324,7.443,11.136,11.316c-9.537,13.054-15.816,27.955-18.532,44.4
		c-5.218,0-10.278,0-15.634,0C27.849,66.217,35.619,47.736,48.034,31.231z"/>
</g>
</svg>
