<?xml version="1.0" encoding="utf-8"?>
<!-- Generator: Adobe Illustrator 19.1.0, SVG Export Plug-In . SVG Version: 6.00 Build 0)  -->
<svg version="1.1" id="Layer_1" xmlns="http://www.w3.org/2000/svg" xmlns:xlink="http://www.w3.org/1999/xlink" x="0px" y="0px"
	 viewBox="0 0 99.178 186.335" enable-background="new 0 0 99.178 186.335" xml:space="preserve">
<g>
	<path fill="#FFFFFF" d="M92.822,68.122l2.719-3.024c1.278-1.421,1.985-3.265,1.985-5.176L97.525,9.394
		c0-1.645-0.524-3.247-1.496-4.574l0,0c-1.458-1.991-3.778-3.168-6.246-3.168l-80.37,0c-2.451,0-4.757,1.161-6.217,3.129
		l-0.02,0.027c-0.99,1.334-1.524,2.951-1.524,4.613v50.517c0,1.901,0.7,3.736,1.965,5.154L6.302,68.1
		c1.469,1.646,3.57,2.587,5.776,2.587h74.987C89.261,70.687,91.354,69.755,92.822,68.122z"/>
	<polygon fill="#FFFFFF" points="37.326,161.401 37.326,163.291 49.59,184.629 61.853,163.29 61.852,137.051 	"/>
	<path fill="#1D1D1B" d="M49.589,186.335l-13.528-22.486l-0.001-2.979l27.057-26.849v29.828L49.589,186.335z M38.587,162.733
		l11.002,18.925l10.998-18.925l0-22.654l-22,21.846V162.733z"/>
	<polygon fill="#FFFFFF" points="37.325,135.178 37.326,153.604 61.852,129.261 61.852,110.685 	"/>
	<path fill="#1D1D1B" d="M36.061,156.633l0.001-21.979l27.056-27.015v22.146L36.061,156.633z M38.587,135.702v14.872l22-21.846
		l0.001-15.005L38.587,135.702z"/>
	<polyline fill="#FFFFFF" points="37.326,69.572 37.326,102.238 61.852,77.737 61.852,69.572 	"/>
	<polygon fill="#1D1D1B" points="36.061,105.284 36.06,69.572 38.591,69.572 38.59,99.201 60.588,77.221 60.588,69.572 
		63.117,69.571 63.118,78.262 	"/>
	<polygon fill="#FFFFFF" points="37.326,110.026 37.326,127.379 61.853,102.886 61.854,85.534 	"/>
	<path fill="#1D1D1B" d="M36.061,130.425v-20.922l27.057-27.015l-0.001,20.922L36.061,130.425z M38.587,110.552v13.79l22.001-21.98
		l-0.001-13.782L38.587,110.552z"/>
	<path fill="#1D1D1B" d="M87.065,72.34H12.079c-2.675,0-5.23-1.145-7.009-3.14l-2.685-3.008C0.847,64.467,0,62.247,0,59.938V9.421
		c0-2.002,0.657-3.99,1.849-5.597C3.633,1.419,6.453,0,9.414,0h80.369c2.984,0,5.817,1.437,7.579,3.844
		c1.188,1.622,1.815,3.541,1.815,5.55l0.001,50.528c0,2.323-0.855,4.554-2.408,6.281l-2.719,3.024
		C92.271,71.205,89.725,72.34,87.065,72.34z M9.414,3.304c-1.919,0-3.748,0.92-4.89,2.461c-0.794,1.069-1.22,2.358-1.22,3.655
		v50.517c0,1.497,0.549,2.937,1.546,4.054l2.685,3.008c1.154,1.294,2.81,2.036,4.544,2.036h74.986c1.724,0,3.375-0.736,4.529-2.018
		l2.719-3.024c1.007-1.119,1.561-2.565,1.561-4.071L95.873,9.394c0-1.303-0.407-2.547-1.176-3.598
		c-1.142-1.56-2.98-2.492-4.914-2.492H9.414z"/>
	<rect x="0.541" y="60.517" fill="#1D1D1B" width="98.1" height="2.522"/>
	<path fill="#1D1D1B" d="M41.154,61.557l0.001-34.481c0-1.48,0.613-2.894,1.694-3.905l0,0c0.991-0.928,2.298-1.444,3.656-1.444
		h6.136c1.34,0,2.631,0.503,3.617,1.409l0.033,0.03c1.104,1.013,1.732,2.443,1.732,3.941l0.001,34.451"/>
	<path fill="#1D1D1B" d="M97.526,21.726l-4.573,0.001c-1.358,0-2.665,0.517-3.655,1.445v0c-1.079,1.011-1.691,2.424-1.691,3.902
		v34.484h9.92L97.526,21.726z"/>
	<path fill="#1D1D1B" d="M1.653,21.726l6.539,0.001c1.353,0,2.657,0.508,3.653,1.424l0,0c1.112,1.022,1.745,2.464,1.745,3.975
		l0.001,34.432H1.653L1.653,21.726z"/>
	<polygon fill="#1D1D1B" points="60.588,77.221 37.914,94.622 38.59,99.201 	"/>
	<polygon fill="#1D1D1B" points="60.588,102.362 37.914,119.68 37.914,126.014 	"/>
	<polygon fill="#1D1D1B" points="60.587,128.728 37.325,148.457 37.914,153.019 	"/>
	<polygon fill="#1D1D1B" points="60.587,162.733 47.552,180.538 49.251,184.04 	"/>
</g>
</svg>
