<?xml version="1.0" encoding="utf-8"?>
<!-- Generator: Adobe Illustrator 19.1.0, SVG Export Plug-In . SVG Version: 6.00 Build 0)  -->
<svg version="1.1" id="Layer_1" xmlns="http://www.w3.org/2000/svg" xmlns:xlink="http://www.w3.org/1999/xlink" x="0px" y="0px"
	 viewBox="0 0 161.963 188.983" enable-background="new 0 0 161.963 188.983" xml:space="preserve">
<g>
	<path fill="#1D1D1B" d="M161.963,188.983H0V0h161.963V188.983z M3,185.983h155.963V3H3V185.983z"/>
	<path fill="#1D1D1B" d="M18.646,27.738c-4.706,0-8.534-3.828-8.534-8.534s3.828-8.534,8.534-8.534c4.705,0,8.533,3.829,8.533,8.534
		S23.351,27.738,18.646,27.738z M18.646,14.67c-2.5,0-4.534,2.034-4.534,4.534s2.034,4.534,4.534,4.534s4.533-2.034,4.533-4.534
		S21.146,14.67,18.646,14.67z"/>
	<path fill="#1D1D1B" d="M18.646,57.713c-4.706,0-8.534-3.829-8.534-8.534s3.828-8.534,8.534-8.534c4.705,0,8.533,3.828,8.533,8.534
		S23.351,57.713,18.646,57.713z M18.646,44.645c-2.5,0-4.534,2.034-4.534,4.534s2.034,4.534,4.534,4.534s4.533-2.034,4.533-4.534
		S21.146,44.645,18.646,44.645z"/>
	<path fill="#1D1D1B" d="M18.646,87.688c-4.706,0-8.534-3.829-8.534-8.534s3.828-8.534,8.534-8.534c4.705,0,8.533,3.829,8.533,8.534
		S23.351,87.688,18.646,87.688z M18.646,74.619c-2.5,0-4.534,2.034-4.534,4.534s2.034,4.534,4.534,4.534s4.533-2.034,4.533-4.534
		S21.146,74.619,18.646,74.619z"/>
	<path fill="#1D1D1B" d="M18.646,117.662c-4.706,0-8.534-3.828-8.534-8.534s3.828-8.534,8.534-8.534
		c4.705,0,8.533,3.829,8.533,8.534S23.351,117.662,18.646,117.662z M18.646,104.594c-2.5,0-4.534,2.034-4.534,4.534
		s2.034,4.534,4.534,4.534s4.533-2.034,4.533-4.534S21.146,104.594,18.646,104.594z"/>
	<path fill="#1D1D1B" d="M18.646,147.636c-4.706,0-8.534-3.829-8.534-8.534s3.828-8.534,8.534-8.534
		c4.705,0,8.533,3.828,8.533,8.534S23.351,147.636,18.646,147.636z M18.646,134.568c-2.5,0-4.534,2.034-4.534,4.534
		s2.034,4.534,4.534,4.534s4.533-2.034,4.533-4.534S21.146,134.568,18.646,134.568z"/>
	<path fill="#1D1D1B" d="M18.646,177.611c-4.706,0-8.534-3.829-8.534-8.534s3.828-8.534,8.534-8.534
		c4.705,0,8.533,3.829,8.533,8.534S23.351,177.611,18.646,177.611z M18.646,164.542c-2.5,0-4.534,2.034-4.534,4.534
		s2.034,4.534,4.534,4.534s4.533-2.034,4.533-4.534S21.146,164.542,18.646,164.542z"/>
	<path fill="#1D1D1B" d="M142.732,27.738c-4.706,0-8.534-3.828-8.534-8.534s3.828-8.534,8.534-8.534s8.534,3.829,8.534,8.534
		S147.439,27.738,142.732,27.738z M142.732,14.67c-2.5,0-4.534,2.034-4.534,4.534s2.034,4.534,4.534,4.534s4.534-2.034,4.534-4.534
		S145.232,14.67,142.732,14.67z"/>
	<path fill="#1D1D1B" d="M142.732,57.713c-4.706,0-8.534-3.829-8.534-8.534s3.828-8.534,8.534-8.534s8.534,3.828,8.534,8.534
		S147.439,57.713,142.732,57.713z M142.732,44.645c-2.5,0-4.534,2.034-4.534,4.534s2.034,4.534,4.534,4.534s4.534-2.034,4.534-4.534
		S145.232,44.645,142.732,44.645z"/>
	<path fill="#1D1D1B" d="M142.732,87.688c-4.706,0-8.534-3.829-8.534-8.534s3.828-8.534,8.534-8.534s8.534,3.829,8.534,8.534
		S147.439,87.688,142.732,87.688z M142.732,74.619c-2.5,0-4.534,2.034-4.534,4.534s2.034,4.534,4.534,4.534s4.534-2.034,4.534-4.534
		S145.232,74.619,142.732,74.619z"/>
	<path fill="#1D1D1B" d="M142.732,117.662c-4.706,0-8.534-3.828-8.534-8.534s3.828-8.534,8.534-8.534s8.534,3.829,8.534,8.534
		S147.439,117.662,142.732,117.662z M142.732,104.594c-2.5,0-4.534,2.034-4.534,4.534s2.034,4.534,4.534,4.534
		s4.534-2.034,4.534-4.534S145.232,104.594,142.732,104.594z"/>
	<path fill="#1D1D1B" d="M142.732,147.636c-4.706,0-8.534-3.829-8.534-8.534s3.828-8.534,8.534-8.534s8.534,3.828,8.534,8.534
		S147.439,147.636,142.732,147.636z M142.732,134.568c-2.5,0-4.534,2.034-4.534,4.534s2.034,4.534,4.534,4.534
		s4.534-2.034,4.534-4.534S145.232,134.568,142.732,134.568z"/>
	<path fill="#1D1D1B" d="M142.732,177.611c-4.706,0-8.534-3.829-8.534-8.534s3.828-8.534,8.534-8.534s8.534,3.829,8.534,8.534
		S147.439,177.611,142.732,177.611z M142.732,164.542c-2.5,0-4.534,2.034-4.534,4.534s2.034,4.534,4.534,4.534
		s4.534-2.034,4.534-4.534S145.232,164.542,142.732,164.542z"/>
	<rect x="47.939" y="36.509" fill="#1D1D1B" width="66.085" height="66.085"/>
	<rect x="85.995" y="112.669" fill="#1D1D1B" width="28.028" height="28.028"/>
	<path fill="#1D1D1B" d="M115.023,187.483h-2v-7.479c0-5.474-4.453-9.927-9.927-9.927H62.448c-5.475,0-9.928,4.453-9.928,9.927
		v6.942h-2v-6.942c0-6.577,5.351-11.927,11.928-11.927h40.648c6.576,0,11.927,5.351,11.927,11.927V187.483z"/>
	<g>
		<rect x="65.499" y="180.354" fill="#1D1D1B" width="2" height="7.129"/>
		<rect x="72.009" y="180.354" fill="#1D1D1B" width="2" height="7.129"/>
		<rect x="85.026" y="180.354" fill="#1D1D1B" width="2" height="7.129"/>
		<rect x="78.518" y="180.354" fill="#1D1D1B" width="2" height="7.129"/>
		<rect x="91.536" y="180.354" fill="#1D1D1B" width="2" height="7.129"/>
		<rect x="98.045" y="180.354" fill="#1D1D1B" width="2" height="7.129"/>
	</g>
	<polygon fill="#1D1D1B" points="59.687,38.228 57.687,38.228 57.687,20.205 25.179,20.205 25.179,18.205 59.687,18.205 	"/>
	<polygon fill="#1D1D1B" points="101.01,39.973 99.01,39.973 99.01,18.205 136.198,18.205 136.198,20.205 101.01,20.205 	"/>
	<rect x="108.936" y="48.179" fill="#1D1D1B" width="27.263" height="2"/>
	<rect x="108.936" y="78.153" fill="#1D1D1B" width="27.263" height="2"/>
	<polygon fill="#1D1D1B" points="126.686,121.232 108.936,121.232 108.936,119.232 124.686,119.232 124.686,108.128 
		136.198,108.128 136.198,110.128 126.686,110.128 	"/>
	<polygon fill="#1D1D1B" points="136.198,140.102 124.686,140.102 124.686,131.701 110.332,131.701 110.332,129.701 
		126.686,129.701 126.686,138.102 136.198,138.102 	"/>
	<rect x="25.179" y="48.179" fill="#1D1D1B" width="30.367" height="2"/>
	<rect x="25.179" y="78.153" fill="#1D1D1B" width="26.342" height="2"/>
	<polygon fill="#1D1D1B" points="89.743,133.568 57.687,133.568 57.687,97.899 59.687,97.899 59.687,131.568 89.743,131.568 	"/>
	<polygon fill="#1D1D1B" points="89.743,121.232 70.598,121.232 70.598,97.899 72.598,97.899 72.598,119.232 89.743,119.232 	"/>
	<polygon fill="#1D1D1B" points="71.202,169.077 69.202,169.077 69.202,151.336 91.536,151.336 91.536,136.982 93.536,136.982 
		93.536,153.336 71.202,153.336 	"/>
	<polygon fill="#1D1D1B" points="95.629,169.077 93.629,169.077 93.629,159.362 104.795,159.362 104.795,136.982 106.795,136.982 
		106.795,161.362 95.629,161.362 	"/>
	<polygon fill="#1D1D1B" points="39.35,110.128 25.179,110.128 25.179,108.128 37.35,108.128 37.35,89.571 51.521,89.571 
		51.521,91.571 39.35,91.571 	"/>
	<polygon fill="#1D1D1B" points="59.687,140.102 25.179,140.102 25.179,138.102 57.687,138.102 57.687,132.568 59.687,132.568 	"/>
	<polygon fill="#1D1D1B" points="45.379,170.077 25.179,170.077 25.179,168.077 43.379,168.077 43.379,152.03 57.687,152.03 
		57.687,139.102 59.687,139.102 59.687,154.03 45.379,154.03 	"/>
	<g>
		<path fill="#FFFFFF" d="M94.097,86.776v4.371h0.984c0.266,0,0.456,0.05,0.571,0.149s0.173,0.261,0.173,0.483
			c0,0.227-0.059,0.392-0.176,0.495s-0.307,0.155-0.568,0.155h-3.48c-0.266,0-0.456-0.051-0.571-0.152s-0.173-0.268-0.173-0.498
			c0-0.227,0.057-0.389,0.17-0.486s0.305-0.146,0.574-0.146h0.984v-4.371h-0.984c-0.266,0-0.456-0.051-0.571-0.152
			s-0.173-0.266-0.173-0.492c0-0.23,0.057-0.395,0.17-0.492s0.305-0.146,0.574-0.146h3.48c0.277,0,0.471,0.049,0.58,0.146
			s0.164,0.262,0.164,0.492c0,0.227-0.057,0.391-0.17,0.492s-0.305,0.152-0.574,0.152H94.097z"/>
		<path fill="#FFFFFF" d="M102.382,85.675c0.078-0.141,0.158-0.24,0.24-0.299s0.186-0.088,0.311-0.088
			c0.191,0,0.327,0.051,0.407,0.152s0.12,0.275,0.12,0.521l0.012,1.523c0,0.27-0.044,0.451-0.132,0.545s-0.247,0.141-0.478,0.141
			c-0.164,0-0.29-0.039-0.378-0.117s-0.163-0.223-0.226-0.434c-0.102-0.371-0.264-0.638-0.486-0.8s-0.531-0.243-0.926-0.243
			c-0.602,0-1.062,0.203-1.383,0.609s-0.48,0.994-0.48,1.764c0,0.766,0.162,1.354,0.486,1.764s0.787,0.615,1.389,0.615
			c0.41,0,0.862-0.137,1.356-0.41s0.806-0.41,0.935-0.41c0.152,0,0.28,0.064,0.384,0.193s0.155,0.289,0.155,0.48
			c0,0.344-0.303,0.668-0.908,0.973s-1.287,0.457-2.045,0.457c-1.023,0-1.852-0.338-2.484-1.014s-0.949-1.559-0.949-2.648
			c0-1.051,0.32-1.924,0.961-2.619s1.453-1.043,2.438-1.043c0.277,0,0.551,0.031,0.82,0.094S102.077,85.542,102.382,85.675z"/>
	</g>
</g>
</svg>
