<?xml version="1.0" encoding="utf-8"?>
<!-- Generator: Adobe Illustrator 19.1.0, SVG Export Plug-In . SVG Version: 6.00 Build 0)  -->
<svg version="1.1" id="Layer_1" xmlns="http://www.w3.org/2000/svg" xmlns:xlink="http://www.w3.org/1999/xlink" x="0px" y="0px"
	 viewBox="0 0 129.072 185.446" enable-background="new 0 0 129.072 185.446" xml:space="preserve">
<g>
	<path fill="#1D1D1B" d="M87.503,183.894L87.503,183.894c-1.001,1.001-2.33,1.552-3.742,1.553l-36.105-0.001
		c-1.418,0-2.749-0.552-3.75-1.555c-0.999-1.002-1.549-2.334-1.549-3.751c0-0.047,0.007-0.167,0.012-0.215l-0.003-7.279
		c-0.004,0-0.008-0.063-0.009-0.123c0-1.43,0.552-2.762,1.554-3.764c1-1,2.33-1.551,3.745-1.551l11.991,0
		c-0.329-0.693-0.513-1.47-0.513-2.292v-26.069c0-0.381,0.047-0.712,0.089-0.958c0.125-0.722,0.746-1.251,1.479-1.25h7.462
		c0.715,0,1.331,0.505,1.471,1.206c0.07,0.35,0.104,0.677,0.104,1.002l0,20.772h13.815c2.809-0.001,5.124,2.212,5.285,4.988
		c0.016,0.08,0.026,0.162,0.027,0.247l0.211,7.716c0.004,0.144-0.013,0.287-0.049,0.424c-0.115,1.263-0.684,2.47-1.593,3.331
		c1,0.965,1.623,2.318,1.624,3.815C89.058,181.558,88.506,182.891,87.503,183.894z M46.032,170.88
		c-0.435,0.435-0.675,1.014-0.675,1.631c0.004,0,0.009,0.074,0.008,0.146l0,7.343c0,0.047-0.007,0.162-0.011,0.209
		c0.002,0.548,0.241,1.127,0.675,1.562c0.434,0.435,1.011,0.674,1.626,0.674l36.104,0c0.611-0.001,1.187-0.24,1.621-0.674l0,0
		c0.436-0.436,0.677-1.017,0.678-1.634c-0.001-1.267-1.033-2.301-2.3-2.301H51.443c-0.828,0-1.5-0.672-1.5-1.5
		c-0.002-0.828,0.671-1.52,1.5-1.519l32.318-0.001c1.201,0,2.256-1.042,2.289-2.25c0.002-0.071,0.009-0.141,0.021-0.21l-0.197-7.186
		c-0.017-0.087-0.026-0.177-0.026-0.269c-0.007-1.26-1.036-2.284-2.294-2.284l-15.315,0c-0.828,0-1.5-0.671-1.5-1.5l0-21.479
		l-4.605-0.001v25.278c0,1.248,0.978,2.256,2.227,2.292c0.026,0.001,0.05,0.002,0.076,0.004c0.008,0,0.017-0.001,0.025-0.001
		l0.359-0.033c0.043-0.004,0.086-0.005,0.129-0.005l16.017,0c0.043,0,0.086,0.002,0.129,0.005l0.359,0.032
		c0.809,0.05,1.433,0.733,1.409,1.543c-0.025,0.809-0.689,1.455-1.499,1.455l-16.809,0c-0.04,0-0.08-0.001-0.119-0.004
		c-0.039,0.002-0.079,0.004-0.119,0.004l-16.662,0C47.042,170.207,46.466,170.446,46.032,170.88z"/>
	<path fill="#1D1D1B" d="M129.072,46.888H65.325l-1.5,0.084L0.087,46.973v-0.086L0,45.388L0,0l129.072,0V46.888z M3.087,43.888
		h59.238l0-40.8L3.087,3.087L3.087,43.888z"/>
	<path fill="#1D1D1B" d="M107.573,84.631c-0.051,0.051-0.105,0.098-0.164,0.142c-0.38,0.283-0.871,0.37-1.325,0.235l-20.525-6.109
		l-21.406,6.114c-0.269,0.077-0.554,0.077-0.823,0l-21.442-6.114l-20.525,6.11c-0.454,0.135-0.945,0.048-1.325-0.235
		s-0.603-0.729-0.603-1.203V45.472c0-0.829,0.671-1.5,1.5-1.5l20.942,0c0.002,0,0.004,0,0.006,0l43.686,0c0.001,0,0.004,0,0.006,0
		l20.938,0c0.398,0,0.779,0.158,1.061,0.439c0.281,0.281,0.439,0.663,0.439,1.061V83.57
		C108.012,83.971,107.852,84.352,107.573,84.631z M87.068,76.217l17.944,5.342l0-34.587l-17.944,0L87.068,76.217z M63.741,82.01
		l20.327-5.806l0.001-29.232H43.383l0,29.232L63.741,82.01z"/>
	<polygon fill="#1D1D1B" points="68.906,139.647 59.987,139.647 59.537,139.031 19.722,84.46 22.146,82.691 61.512,136.647 
		67.351,136.648 105.403,82.709 107.854,84.439 	"/>
	<path fill="#1D1D1B" d="M24.375,35.272c-1.588,1.588-3.492,2.441-5.515,2.44c-2.645,0.001-5.092-1.457-6.887-4.105
		c-1.674-2.468-2.596-5.723-2.595-9.164c0-3.44,0.922-6.695,2.595-9.165c1.797-2.65,4.242-4.11,6.887-4.109
		c5.313,0,9.475,5.83,9.475,13.274l0,0c0,3.44-0.922,6.695-2.595,9.164C25.32,34.229,24.862,34.785,24.375,35.272z"/>
	<polygon fill="#1D1D1B" points="84.069,46.972 74.811,78.848 84.068,76.204 	"/>
</g>
</svg>
