<?xml version="1.0" encoding="utf-8"?>
<!-- Generator: Adobe Illustrator 19.1.0, SVG Export Plug-In . SVG Version: 6.00 Build 0)  -->
<svg version="1.1" id="Layer_1" xmlns="http://www.w3.org/2000/svg" xmlns:xlink="http://www.w3.org/1999/xlink" x="0px" y="0px"
	 viewBox="0 0 231.706 230.133" enable-background="new 0 0 231.706 230.133" xml:space="preserve">
<g>
	<g>
		<path d="M57.151,178.96l-1.311-2.409c0.188-0.104,4.62-2.608,4.606-7.722c-0.006-2.267-1.044-4.472-2.143-6.805
			c-2.02-4.29-4.311-9.153,0.034-15.021l2.204,1.633c-3.37,4.55-1.696,8.104,0.243,12.219c1.179,2.502,2.397,5.089,2.405,7.967
			C63.207,175.599,57.398,178.826,57.151,178.96z"/>
		<path d="M71.843,178.96l-1.307-2.412l0.654,1.206l-0.658-1.203c0.188-0.104,4.619-2.608,4.606-7.722
			c-0.006-2.267-1.044-4.472-2.143-6.805c-2.02-4.29-4.311-9.153,0.034-15.021l2.204,1.633c-3.37,4.55-1.696,8.104,0.243,12.219
			c1.179,2.502,2.397,5.089,2.405,7.967C77.899,175.599,72.091,178.825,71.843,178.96z"/>
		<path d="M86.535,178.96l-1.307-2.412l0.654,1.206l-0.658-1.203c0.188-0.104,4.619-2.608,4.606-7.722
			c-0.006-2.267-1.044-4.472-2.143-6.805c-2.02-4.29-4.311-9.153,0.034-15.021l2.204,1.633c-3.37,4.55-1.696,8.104,0.243,12.219
			c1.179,2.502,2.397,5.089,2.405,7.967C92.591,175.599,86.782,178.825,86.535,178.96z"/>
	</g>
	<path d="M22.144,207.481c1.672,1.115,10.464,22.652,10.464,22.652h187l12.098-18.288l-7.218-49.287l-32.883-58.169l-23.382,20.077
		l9.448,38.092l-31.239,44.923H22.144z"/>
	<rect x="61.421" y="116.926" transform="matrix(0.709 0.7052 -0.7052 0.709 124.9775 -60.098)" width="147.775" height="8.914"/>
	<polygon points="169.201,127.225 132.688,70.589 132.688,7.856 141.602,7.856 141.602,67.964 176.693,122.394 	"/>
	<rect x="119.178" y="63.68" transform="matrix(0.7071 0.7071 -0.7071 0.7071 94.7498 -63.1766)" width="8.915" height="38.209"/>
	<rect x="0" y="189.579" width="142.238" height="8.914"/>
	<rect x="34.628" y="120.352" transform="matrix(0.7071 0.7071 -0.7071 0.7071 119.225 -38.2189)" width="142.239" height="8.915"/>
	<circle cx="137.144" cy="7.856" r="7.856"/>
	<circle cx="137.144" cy="69.276" r="7.856"/>
	<circle cx="172.947" cy="124.809" r="7.856"/>
	<circle cx="110.127" cy="96.146" r="7.856"/>
	<rect x="85.909" y="79.391" transform="matrix(0.7071 0.7071 -0.7071 0.7071 90.1976 -35.796)" width="4.799" height="23.179"/>
	<rect x="134.341" y="127.603" transform="matrix(0.7071 0.7071 -0.7071 0.7071 138.539 -55.8954)" width="4.799" height="23.362"/>
</g>
</svg>
