<?xml version="1.0" encoding="utf-8"?>
<!-- Generator: Adobe Illustrator 19.1.0, SVG Export Plug-In . SVG Version: 6.00 Build 0)  -->
<svg version="1.1" id="Layer_1" xmlns="http://www.w3.org/2000/svg" xmlns:xlink="http://www.w3.org/1999/xlink" x="0px" y="0px"
	 viewBox="0 0 129.553 188.329" enable-background="new 0 0 129.553 188.329" xml:space="preserve">
<g>
	<polygon fill="#FFFFFF" points="29.741,101.06 29.74,1.616 96.933,1.616 96.931,101.059 90.1,109.792 35.663,109.791 	"/>
	<path fill="#100C08" d="M90.884,111.407l-56.075,0.001l-6.68-9.857L28.128,0.001L98.544,0l0,101.616L90.884,111.407z
		 M36.52,108.175l52.792,2.661l6.007-10.335L95.319,3.234l-63.965,0l0,97.332L36.52,108.175z"/>
	<g>
		<rect x="64.132" y="49.121" fill="#100C08" width="4.367" height="31.894"/>
		<rect x="71.751" y="49.121" fill="#100C08" width="4.367" height="31.894"/>
		<rect x="79.37" y="49.121" fill="#100C08" width="4.367" height="31.894"/>
	</g>
	<rect x="29.74" y="99.441" fill="#100C08" width="67.192" height="3.234"/>
	<path fill="#100C08" d="M89.19,87.426H58.679V42.712H89.19V87.426z M59.618,86.487h28.633V43.651H59.618V86.487z"/>
	<polygon fill="#100C08" points="86.916,43.651 89.19,70.926 88.251,43.651 	"/>
	<polygon fill="#100C08" points="60.63,87.426 58.679,61.069 58.679,87.426 	"/>
	<polygon fill="#100C08" points="92.446,105.351 47.836,101.059 94.883,101.059 	"/>
	<polygon fill="#100C08" points="66.153,176.802 60.52,176.802 60.52,109.792 68.814,109.792 	"/>
	<polygon fill="#100C08" points="63.241,179.427 23.812,137.91 17.818,128.877 63.432,174.176 93.052,149.148 89.334,155.683 	"/>
	<polygon fill="#100C08" points="63.342,178.721 29.178,169.471 32.607,168.457 63.331,174.882 107.717,167.424 111.169,168.433 	
		"/>
	<g>
		<polygon fill="#100C08" points="129.553,177.74 0,180.402 0,175.863 129.553,175.863 		"/>
		<polygon fill="#100C08" points="11.719,188.329 10.392,187.002 21.256,176.138 25.244,177.465 		"/>
		<polygon fill="#100C08" points="23.021,188.329 21.693,187.002 32.557,176.138 36.546,177.465 		"/>
		<polygon fill="#100C08" points="34.322,188.329 32.994,187.002 43.858,176.138 47.847,177.465 		"/>
		<polygon fill="#100C08" points="45.623,188.329 44.296,187.002 55.16,176.138 59.148,177.465 		"/>
		<polygon fill="#100C08" points="56.924,188.329 55.597,187.002 66.461,176.138 70.449,177.465 		"/>
		<polygon fill="#100C08" points="68.226,188.329 66.898,187.002 77.762,176.138 81.751,177.465 		"/>
		<polygon fill="#100C08" points="79.527,188.329 78.199,187.002 89.063,176.138 93.052,177.465 		"/>
		<polygon fill="#100C08" points="90.828,188.329 89.501,187.002 100.365,176.138 104.353,177.465 		"/>
		<polygon fill="#100C08" points="102.13,188.329 100.802,187.002 111.666,176.138 115.655,177.465 		"/>
	</g>
</g>
</svg>
