<?xml version="1.0" encoding="utf-8"?>
<!-- Generator: Adobe Illustrator 19.1.0, SVG Export Plug-In . SVG Version: 6.00 Build 0)  -->
<svg version="1.1" id="Layer_1" xmlns="http://www.w3.org/2000/svg" xmlns:xlink="http://www.w3.org/1999/xlink" x="0px" y="0px"
	 viewBox="0 0 202.308 295.665" enable-background="new 0 0 202.308 295.665" xml:space="preserve">
<g>
	<g>
		<g>
			<path fill="#FFFFFF" d="M163.897,31.166c-28.319-32.85-62.743-31.151-62.743-31.151S66.73-1.684,38.411,31.166
				c-28.319,32.85-22.089,97.417-20.956,118.94c1.133,21.522,2.832,51.541,5.664,65.134c2.832,13.593,16.991,36.815,30.018,50.974
				c13.027,14.159,29.201,26.62,48.017,29.452c18.816-2.832,34.99-15.292,48.017-29.452c13.027-14.159,27.186-37.381,30.018-50.974
				c2.832-13.593,4.531-43.611,5.664-65.134C185.986,128.583,192.216,64.016,163.897,31.166z"/>
			<path fill="#FFFFFF" d="M181.441,137.771c2.822-2.149,9.742-4.91,15.73,0.037c2.857,2.361,4.597,6.562,5.031,12.149
				c0.774,9.963-2.822,21.591-8.746,28.277c-7.149,8.068-13.981,8.267-14.625,8.267c-0.019,0-0.032,0-0.04,0"/>
			<path fill="#FFFFFF" d="M23.516,186.501c-0.008,0-0.021,0-0.04,0c-0.644,0-7.474-0.197-14.625-8.267
				c-5.924-6.687-9.521-18.314-8.746-28.277c0.435-5.587,2.174-9.788,5.031-12.149c5.982-4.946,12.907-2.188,15.731-0.037"/>
		</g>
		<path fill="#1D1D1B" d="M59.429,179.74c-21.195,0-38.439-17.244-38.439-38.439s17.244-38.438,38.439-38.438
			s38.438,17.243,38.438,38.438S80.624,179.74,59.429,179.74z M59.429,107.862c-18.438,0-33.439,15-33.439,33.438
			S40.99,174.74,59.429,174.74s33.438-15.001,33.438-33.439S77.867,107.862,59.429,107.862z"/>
		<path fill="#1D1D1B" d="M142.88,179.74c-21.195,0-38.439-17.244-38.439-38.439s17.244-38.438,38.439-38.438
			s38.438,17.243,38.438,38.438S164.075,179.74,142.88,179.74z M142.88,107.862c-18.438,0-33.439,15-33.439,33.438
			s15.001,33.439,33.439,33.439s33.438-15.001,33.438-33.439S161.318,107.862,142.88,107.862z"/>
		<path fill="#1D1D1B" d="M163.897,31.166c-28.319-32.85-62.743-31.151-62.743-31.151S66.73-1.684,38.411,31.166
			c-28.319,32.85-22.089,97.417-20.956,118.94c1.133,21.522,2.832,51.541,5.664,65.134c2.832,13.593,16.991,36.815,30.018,50.974
			c13.027,14.159,29.201,26.62,48.017,29.452c18.816-2.832,34.99-15.292,48.017-29.452c13.027-14.159,27.186-37.381,30.018-50.974
			c2.832-13.593,4.531-43.611,5.664-65.134C185.986,128.583,192.216,64.016,163.897,31.166z M178.818,141.3
			c-1.206,45.62-14.233,84.134-31.791,81.868c-17.558-2.266-20.956-22.655-28.885-23.788c-7.929-1.133-16.976,5.664-16.976,5.664
			s-8.511-9.062-17.007-9.062S70,223.735,53.575,223.264C37.15,222.792,23.557,174.46,23.489,141.3s26.687-71.054,26.687-71.054
			s34.549,20.39,69.665,23.222c0,0-6.545-5.097-12.901-16.991c0,0,21.397,11.894,38.954,14.159c0,0-7.363-8.496-7.929-16.425
			C137.966,74.211,180.024,95.68,178.818,141.3z"/>
		<path fill="#1D1D1B" d="M178.818,141.3"/>
		<path fill="#1D1D1B" d="M117.98,115.385c6.459-6.207,15.234-10.023,24.899-10.023c7.08,0,13.681,2.047,19.245,5.582
			L117.98,115.385z"/>
		<path fill="#1D1D1B" d="M33.897,115.385c6.459-6.207,15.234-10.023,24.899-10.023c7.08,0,13.681,2.047,19.245,5.582
			L33.897,115.385z"/>
		<ellipse fill="#1D1D1B" cx="94.229" cy="192.63" rx="4.405" ry="1.586"/>
		<ellipse fill="#1D1D1B" cx="110.528" cy="192.63" rx="4.67" ry="1.586"/>
		<circle fill="#1D1D1B" cx="66.402" cy="148.022" r="2.844"/>
		<circle fill="#1D1D1B" cx="130.589" cy="148.835" r="3.656"/>
		<path fill="#1D1D1B" d="M178.832,186.501c-0.019,0-0.032,0-0.04,0l0.053-3c0.001,0,0.002,0,0.002,0
			c0.266,0,6.014-0.089,12.364-7.257c5.428-6.125,8.718-16.839,8.001-26.054c-0.364-4.689-1.768-8.266-3.95-10.07
			c-5.671-4.684-11.939-0.012-12.002,0.037l-1.818-2.387c2.822-2.149,9.742-4.91,15.73,0.037c2.857,2.361,4.597,6.562,5.031,12.149
			c0.774,9.963-2.822,21.591-8.746,28.277C186.307,186.303,179.475,186.501,178.832,186.501z"/>
		<path fill="#1D1D1B" d="M23.475,186.501c-0.644,0-7.474-0.197-14.625-8.267c-5.924-6.687-9.521-18.314-8.746-28.277
			c0.435-5.587,2.174-9.788,5.031-12.149c5.982-4.946,12.907-2.188,15.731-0.037l-1.818,2.387l0.909-1.193l-0.905,1.196
			c-0.258-0.194-6.372-4.693-12.007-0.04c-2.183,1.805-3.586,5.381-3.95,10.07c-0.717,9.215,2.573,19.929,8.001,26.054
			c6.368,7.187,12.146,7.271,12.377,7.257l0.042,3C23.508,186.501,23.494,186.501,23.475,186.501z"/>
		<path fill="#1D1D1B" d="M95.178,142.461l-1.898-2.322c0.453-0.371,4.526-3.622,7.875-3.622c3.488,0,6.574,3.406,6.914,3.795
			l-2.256,1.977c-0.68-0.77-2.845-2.771-4.658-2.771C99.216,139.517,96.112,141.698,95.178,142.461z"/>
	</g>
	<path fill="#FFFFFF" d="M78.176,234.156c0,0,10.345-3.724,17.623-3.258s19.845-0.738,27.293,1.609s7.447,2.347,7.447,2.347
		s-20.121-2.6-27.515-1.998S78.176,234.156,78.176,234.156z"/>
</g>
</svg>
