<?xml version="1.0" encoding="utf-8"?>
<!-- Generator: Adobe Illustrator 19.1.0, SVG Export Plug-In . SVG Version: 6.00 Build 0)  -->
<svg version="1.1" id="Layer_1" xmlns="http://www.w3.org/2000/svg" xmlns:xlink="http://www.w3.org/1999/xlink" x="0px" y="0px"
	 viewBox="0 0 181.439 330.268" enable-background="new 0 0 181.439 330.268" xml:space="preserve">
<g>
	<path fill="#FFFFFF" d="M161.07,264.566c0.006,0.001,0.016,0.002,0.029,0.004c0.47,0.057,5.479,0.518,11.421-4.746
		c4.922-4.362,8.58-12.541,8.897-19.891c0.177-4.122-0.722-7.346-2.601-9.325c-3.934-4.145-9.239-2.743-11.494-1.421"/>
	<path fill="#FFFFFF" d="M93.138,330.268l-0.204-0.03c-14.987-2.256-29.966-11.421-44.519-27.242
		c-12.731-13.837-25.14-34.946-27.664-47.057c-2.412-11.58-3.917-35.445-5.184-59.509c-0.073-1.382-0.168-2.958-0.275-4.706
		c-1.388-22.842-4.64-47.84,19.685-76.056C48.51,99.969,63.584,92.966,73.848,89.855c10.744-3.257,18.442-3.058,19.29-3.025
		c0.847-0.034,8.545-0.232,19.29,3.025c10.263,3.111,25.338,10.114,38.871,25.813c24.324,28.216,21.073,53.214,19.685,76.056
		c-0.107,1.748-0.202,3.325-0.275,4.706c-1.267,24.065-2.771,47.929-5.184,59.509c-2.523,12.111-14.933,33.22-27.664,47.057
		c-14.553,15.82-29.532,24.986-44.519,27.242L93.138,330.268z M93.139,89.565l-0.067-0.004"/>
	<path fill="#1D1D1B" d="M93.138,330.268l-0.204-0.03c-14.987-2.256-29.966-11.421-44.519-27.242
		c-12.731-13.837-25.14-34.946-27.664-47.057c-2.412-11.58-3.917-35.445-5.184-59.509c-0.073-1.382-0.168-2.958-0.275-4.706
		c-1.388-22.842-4.64-47.84,19.685-76.056C48.51,99.969,63.584,92.966,73.848,89.855c10.744-3.257,18.442-3.058,19.29-3.025
		c0.847-0.034,8.545-0.232,19.29,3.025c10.263,3.111,25.338,10.114,38.871,25.813c24.324,28.216,21.073,53.214,19.685,76.056
		c-0.107,1.748-0.202,3.325-0.275,4.706c-1.267,24.065-2.771,47.929-5.184,59.509c-2.523,12.111-14.933,33.22-27.664,47.057
		c-14.553,15.82-29.532,24.986-44.519,27.242L93.138,330.268z M92.486,89.553c-4.375,0-32.335,1.096-55.441,27.899
		c-23.599,27.375-20.394,51.596-19.027,74.106c0.107,1.756,0.204,3.34,0.277,4.728c0.848,16.12,2.427,46.124,5.13,59.097
		c2.397,11.505,14.762,32.463,26.999,45.764c14.055,15.278,28.424,24.146,42.713,26.359c14.289-2.213,28.659-11.08,42.713-26.359
		c12.237-13.302,24.602-34.259,26.999-45.764c2.703-12.973,4.282-42.977,5.13-59.097c0.073-1.388,0.17-2.972,0.277-4.728
		c1.368-22.51,4.572-46.731-19.027-74.106l0,0c-25.062-29.072-55.719-27.898-56.025-27.891l-0.067,0.004l-0.067-0.004
		C93.048,89.56,92.847,89.553,92.486,89.553z"/>
	<path fill="#1D1D1B" d="M77.291,289.946c-1.669,1.598-9.204-3.965-6.314-3.098c3.94,1.182,4.827,1.126,9.895,1.126
		s9.478,1.011,12.958,1.013c3.715,0.002,6.278-1.297,11.25-1.037c4.972,0.26,11.595,0.098,13.291-0.201
		c1.914-0.338-8.117,4.675-10.65,3.662c-1.38-0.552,10.406-4.043,7.441-4.563c-2.964-0.519-10.864-5.82-13.35-6.469
		c-2.486-0.649-6.099,1.233-7.353,1.233s-5.737-4.771-7.553-4.706s-8.049,8.591-15.705,8.703
		C68.994,285.642,79.608,287.727,77.291,289.946z"/>
	<circle fill="#1D1D1B" cx="65.064" cy="226.105" r="3.012"/>
	<circle fill="#1D1D1B" cx="122.427" cy="226.105" r="3.012"/>
	<ellipse fill="#1D1D1B" cx="94.468" cy="263.084" rx="3.65" ry="0.795"/>
	<path fill="#1D1D1B" d="M82.321,84.842l0.345-6.318c0,0-54.693-87.2,42.431-77.818c29.027,2.804,60.297,72.356,40.696,110.463
		c0,0,14.582-30.082-14.064-43.224S94.924,79.403,94.924,79.403l3.542,7.658c0,0,35.367,1.453,57.846,24.277
		c37.455,38.029,9.213,144.601,9.213,144.601s-20.439-123.496-69.614-101.761c-34.433,15.22-56.275,57.541-60.296,98.389
		c-2.915,29.613,25.221,77.701,25.221,77.701s-39.708-36.008-54.717-75.69S6.314,110.32,23.754,97.423S82.321,84.842,82.321,84.842z
		"/>
	<path fill="#1D1D1B" d="M66.256,252.431c-11.169,0-20.256-9.087-20.256-20.256s9.087-20.256,20.256-20.256
		s20.255,9.087,20.255,20.256S77.425,252.431,66.256,252.431z M66.256,214.935c-9.506,0-17.241,7.734-17.241,17.241
		s7.734,17.241,17.241,17.241s17.24-7.734,17.24-17.241S75.762,214.935,66.256,214.935z"/>
	<path fill="#1D1D1B" d="M122.427,253.097c-11.169,0-20.256-9.087-20.256-20.256c0-11.169,9.087-20.256,20.256-20.256
		s20.256,9.087,20.256,20.256C142.683,244.01,133.596,253.097,122.427,253.097z M122.427,215.6c-9.506,0-17.241,7.734-17.241,17.241
		c0,9.506,7.734,17.241,17.241,17.241s17.241-7.734,17.241-17.241C139.668,223.335,131.933,215.6,122.427,215.6z"/>
	<path fill="#1D1D1B" d="M161.099,264.57c0.47,0.057,5.479,0.518,11.421-4.746c4.922-4.362,8.58-12.541,8.897-19.891
		c0.177-4.122-0.722-7.346-2.601-9.325c-3.934-4.145-9.239-2.743-11.494-1.421l1.117,1.905l-0.559-0.953l0.556,0.954
		c0.206-0.119,5.073-2.866,8.778,1.034c1.435,1.512,2.144,4.25,1.995,7.71c-0.293,6.798-3.646,14.337-8.156,18.332
		c-5.291,4.688-9.52,4.237-9.688,4.207l-0.296,2.189C161.076,264.567,161.086,264.568,161.099,264.57z"/>
	<path fill="#1D1D1B" d="M92.626,299.308c3.634,0.027,6.205,0.177,7.8,0.709c1.596,0.532-5.584,1.596-8.244,1.418
		c-2.659-0.177-6.293-1.241-6.648-1.507C85.18,299.663,91.212,299.298,92.626,299.308z"/>
	<path fill="#1D1D1B" d="M23.275,267.083c-0.47,0.057-5.479,0.518-11.421-4.746c-4.922-4.362-8.58-12.541-8.897-19.891
		c-0.177-4.122,0.722-7.346,2.601-9.325c3.934-4.145,9.239-2.743,11.494-1.421l-1.117,1.905l0.559-0.953l-0.556,0.954
		c-0.206-0.119-5.073-2.866-8.778,1.034c-1.435,1.512-2.144,4.25-1.995,7.71c0.293,6.798,3.646,14.336,8.156,18.332
		c5.291,4.688,9.52,4.237,9.688,4.207l0.296,2.189C23.299,267.08,23.289,267.082,23.275,267.083z"/>
	<path fill="#1D1D1B" d="M85.003,232.175c0,0,3.779-5.163,8.916-5.404s8.885,3.438,9.76,6.07c0,0-3.476-4.035-8.914-3.723
		C89.327,229.429,85.003,232.175,85.003,232.175z"/>
	<path fill="#1D1D1B" d="M141.175,232.84c0,0,19.221-0.664,28.036-3.723c0,0-20.698,5.719-28.21,6.248L141.175,232.84z"/>
	<path fill="#1D1D1B" d="M47.507,230.361c0,0-9.377-0.725-16.481-2.514c0,0,10.01,5.315,16.481,6.135V230.361z"/>
</g>
</svg>
