<?xml version="1.0" encoding="utf-8"?>
<!-- Generator: Adobe Illustrator 19.1.0, SVG Export Plug-In . SVG Version: 6.00 Build 0)  -->
<svg version="1.1" id="Layer_1" xmlns="http://www.w3.org/2000/svg" xmlns:xlink="http://www.w3.org/1999/xlink" x="0px" y="0px"
	 viewBox="0 0 89.718 190.028" enable-background="new 0 0 89.718 190.028" xml:space="preserve">
<g>
	<rect x="0" y="0.001" fill="#1D1D1B" width="89.717" height="28.82"/>
	<rect x="11.156" y="23.71" fill="#1D1D1B" width="68.799" height="74.835"/>
	<path fill="#1D1D1B" d="M26.856,190.028V93.354l37.402-0.51l-0.001,46.642L26.856,190.028z M29.856,96.313v84.617l31.401-42.434
		l0.001-42.611L29.856,96.313z"/>
	<path fill="#1D1D1B" d="M28.331,149.004c-0.063,0-0.128-0.004-0.192-0.012c-0.821-0.105-1.402-0.856-1.298-1.678
		c0.045-0.346,1.113-8.567,3.671-16.938c3.599-11.779,8.289-17.752,13.941-17.752c12.76,0,19.517,18.083,19.799,18.853
		c0.284,0.778-0.116,1.639-0.894,1.923c-0.774,0.283-1.639-0.115-1.924-0.893c-0.062-0.168-6.318-16.883-16.981-16.884
		c-4.057,0-7.985,5.539-11.062,15.597c-2.487,8.129-3.563,16.392-3.573,16.474C29.72,148.451,29.074,149.004,28.331,149.004z"/>
	<rect x="45.083" y="28.595" fill="#F5F5F5" width="7" height="65.895"/>
	<rect x="57.739" y="28.595" fill="#F5F5F5" width="4" height="65.896"/>
	<rect x="49.288" y="1.923" fill="#F5F5F5" width="8" height="24.056"/>
	<rect x="62.444" y="1.924" fill="#F5F5F5" width="4" height="24.056"/>
	<polygon fill="#1D1D1B" points="28.279,100.495 61.739,105.54 62.871,97.132 26.856,97.132 	"/>
</g>
</svg>
