<?xml version="1.0" encoding="utf-8"?>
<!-- Generator: Adobe Illustrator 16.0.0, SVG Export Plug-In . SVG Version: 6.00 Build 0)  -->
<!DOCTYPE svg PUBLIC "-//W3C//DTD SVG 1.1//EN" "http://www.w3.org/Graphics/SVG/1.1/DTD/svg11.dtd">
<svg version="1.1" id="Calque_1" xmlns="http://www.w3.org/2000/svg" xmlns:xlink="http://www.w3.org/1999/xlink" x="0px" y="0px"
	 width="116.449px" height="112.494px" viewBox="0 0 116.449 112.494" enable-background="new 0 0 116.449 112.494"
	 xml:space="preserve">
<rect x="11.372" y="9.607" fill-rule="evenodd" clip-rule="evenodd" fill="#FFFFFF" width="93.28" height="93.28"/>
<path fill="#FBE16B" d="M83.492,54.408c-1.926-2.263-4.742-2.453-7.345-1.577c-2.702,0.919-4.625,2.501-6.478,4.572
	c-3.337,3.726-5.937,9.391-5.65,14.584c0.375,6.692,5.432,9.31,11.239,6.075c4.547-2.524,7.995-7.683,9.405-12.511
	c1.999-1.155,3.996-2.308,5.997-3.462v13.014c-10.443,6.032-20.882,12.06-31.324,18.086c0.05,1.498,0.107,3.007,0.158,4.51
	c30.604-1.087,49.511-33.838,35.157-60.887c-1.33,0.705-2.661,1.415-3.991,2.116v11.333C88.268,51.648,85.882,53.024,83.492,54.408"
	/>
<path fill="#64C5E5" d="M43.677,35.129c-0.995,2.799,0.247,5.33,2.307,7.142c2.146,1.887,4.478,2.761,7.192,3.329
	c4.896,1.025,11.102,0.449,15.456-2.398c5.605-3.667,5.343-9.356-0.356-12.773c-4.461-2.674-10.654-3.079-15.535-1.89
	c-2.001-1.148-4-2.307-5.999-3.463c3.755-2.171,7.511-4.34,11.27-6.511c10.438,6.032,20.882,12.057,31.321,18.09
	c1.276-0.799,2.553-1.599,3.829-2.4c-16.242-25.953-54.05-25.953-70.299,0c1.278,0.799,2.554,1.602,3.828,2.4
	c3.271-1.891,6.547-3.779,9.812-5.672C38.897,32.367,41.287,33.746,43.677,35.129"/>
<path fill="#EA5E64" d="M46.885,79.248c2.926-0.533,4.5-2.879,5.035-5.571c0.561-2.802,0.145-5.26-0.716-7.896
	c-1.556-4.757-5.163-9.848-9.807-12.19c-5.981-3.019-10.781,0.055-10.885,6.7c-0.083,5.199,2.664,10.757,6.134,14.398v6.928
	c-3.755-2.17-7.516-4.34-11.27-6.514V38.931c-1.33-0.703-2.659-1.411-3.988-2.112c-14.359,27.055,4.55,59.797,35.153,60.886
	c0.052-1.504,0.108-3.008,0.157-4.508c-3.27-1.889-6.54-3.784-9.812-5.673V79.248z"/>
</svg>
