<?xml version="1.0" encoding="utf-8"?>
<!-- Generator: Adobe Illustrator 19.1.0, SVG Export Plug-In . SVG Version: 6.00 Build 0)  -->
<svg version="1.1" id="Calque_1" xmlns="http://www.w3.org/2000/svg" xmlns:xlink="http://www.w3.org/1999/xlink" x="0px" y="0px"
	 viewBox="-224 377.7 86 85.8" style="enable-background:new -224 377.7 86 85.8;" xml:space="preserve">
<style type="text/css">
	.st0{fill:#FBE16B;}
	.st1{fill:#64C5E5;}
	.st2{fill:#EA5E64;}
</style>
<path class="st0" d="M-155.5,418.8c-1.9-2.3-4.7-2.5-7.3-1.6c-2.7,0.9-4.6,2.5-6.5,4.6c-3.3,3.7-5.9,9.4-5.7,14.6
	c0.4,6.7,5.4,9.3,11.2,6.1c4.5-2.5,8-7.7,9.4-12.5c2-1.2,4-2.3,6-3.5v13c-10.4,6-20.9,12.1-31.3,18.1c0.1,1.5,0.1,3,0.2,4.5
	c30.6-1.1,49.5-33.8,35.2-60.9c-1.3,0.7-2.7,1.4-4,2.1v11.3C-150.7,416-153.1,417.4-155.5,418.8"/>
<path class="st1" d="M-195.3,399.5c-1,2.8,0.2,5.3,2.3,7.1c2.1,1.9,4.5,2.8,7.2,3.3c4.9,1,11.1,0.4,15.5-2.4
	c5.6-3.7,5.3-9.4-0.4-12.8c-4.5-2.7-10.7-3.1-15.5-1.9c-2-1.1-4-2.3-6-3.5c3.8-2.2,7.5-4.3,11.3-6.5c10.4,6,20.9,12.1,31.3,18.1
	c1.3-0.8,2.6-1.6,3.8-2.4c-16.2-26-54.1-26-70.3,0c1.3,0.8,2.6,1.6,3.8,2.4c3.3-1.9,6.5-3.8,9.8-5.7
	C-200.1,396.8-197.7,398.1-195.3,399.5"/>
<path class="st2" d="M-192.1,443.6c2.9-0.5,4.5-2.9,5-5.6c0.6-2.8,0.1-5.3-0.7-7.9c-1.6-4.8-5.2-9.8-9.8-12.2
	c-6-3-10.8,0.1-10.9,6.7c-0.1,5.2,2.7,10.8,6.1,14.4v6.9c-3.8-2.2-7.5-4.3-11.3-6.5v-36.2c-1.3-0.7-2.7-1.4-4-2.1
	c-14.4,27.1,4.6,59.8,35.2,60.9c0.1-1.5,0.1-3,0.2-4.5c-3.3-1.9-6.5-3.8-9.8-5.7L-192.1,443.6L-192.1,443.6z"/>
</svg>
