<?xml version="1.0" encoding="UTF-8"?>
<!-- Generator: Adobe Illustrator 16.0.0, SVG Export Plug-In . SVG Version: 6.00 Build 0)  -->
<!DOCTYPE svg PUBLIC "-//W3C//DTD SVG 1.1//EN" "http://www.w3.org/Graphics/SVG/1.1/DTD/svg11.dtd">
<svg version="1.1" id="Layer_1" xmlns="http://www.w3.org/2000/svg" xmlns:xlink="http://www.w3.org/1999/xlink" x="0px" y="0px" width="334.49px" height="640.63px" viewBox="0 0 334.49 640.63" enable-background="new 0 0 334.49 640.63" xml:space="preserve">
<g>
	<path fill="#4a4a4a" stroke="#4a4a4a" stroke-miterlimit="10" d="M329.5,607.161c0,12.884-10.59,23.339-23.476,23.339H28.976   C16.091,630.5,5.5,620.045,5.5,607.161V33.839C5.5,20.954,16.091,10.5,28.976,10.5h277.049c12.886,0,23.476,10.454,23.476,23.339   V607.161z"/>
	<path fill="#FFFFFF" stroke="#4a4a4a" stroke-miterlimit="10" d="M28.976,550.5c-8.325,0-15.476-6.338-15.476-14.664V66.758   c0-8.325,7.15-15.258,15.476-15.258h277.049c8.326,0,15.476,6.933,15.476,15.258v469.078c0,8.326-7.149,14.664-15.476,14.664   H28.976z"/>
	<circle fill="#FFFFFF" stroke="#4a4a4a" stroke-miterlimit="10" cx="299.177" cy="32.457" r="8.23"/>
	<path fill="#FFFFFF" stroke="#4a4a4a" stroke-miterlimit="10" d="M189.907,589.799c0,12.366-10.036,22.407-22.407,22.407   c-12.374,0-22.407-10.033-22.407-22.407s10.033-22.407,22.407-22.407S189.907,577.425,189.907,589.799z"/>
	<circle fill="#4a4a4a" cx="167.5" cy="589.799" r="13.261"/>
</g>
</svg>